HIERARCHY
ROOT Hips
{
  OFFSET 0 0 0
  CHANNELS 6 Xposition Yposition Zposition Zrotation Xrotation Yrotation
  JOINT LeftUpLeg
  {
    OFFSET 4.06525 -3.90732 0.41711
    CHANNELS 3 Zrotation Xrotation Yrotation
    JOINT LeftLeg
    {
      OFFSET 0.00023 -18.4821 0.00367
      CHANNELS 3 Zrotation Xrotation Yrotation
      JOINT LeftFoot
      {
        OFFSET -0.00172 -15.2898 -0.02629
        CHANNELS 3 Zrotation Xrotation Yrotation
        JOINT LeftToeBase
        {
          OFFSET 0.36743 -3.19131 5.54287
          CHANNELS 3 Zrotation Xrotation Yrotation
          JOINT LeftToeBase2
          {
            OFFSET 0.08751 0.04849 1.36758
            CHANNELS 3 Zrotation Xrotation Yrotation
            JOINT LeftToeBase3
            {
              OFFSET 0.07484 0.06785 1.16707
            }
          }
        }
      }
    }
  }
  JOINT RightUpLeg
  {
    OFFSET -4.06526 -3.90731 0.41712
    CHANNELS 3 Zrotation Xrotation Yrotation
    JOINT RightLeg
    {
      OFFSET -0.00029 -18.4821 0.0044
      CHANNELS 3 Zrotation Xrotation Yrotation
      JOINT RightFoot
      {
        OFFSET 0.0016 -15.2898 -0.02569
        CHANNELS 3 Zrotation Xrotation Yrotation
        JOINT RightToeBase
        {
          OFFSET -0.3542 -3.19109 5.54386
          CHANNELS 3 Zrotation Xrotation Yrotation
          JOINT RightToeBase2
          {
            OFFSET -0.08424 0.04854 1.36778
            CHANNELS 3 Zrotation Xrotation Yrotation
            JOINT RightToeBase3
            {
              OFFSET -0.07205 0.0679 1.16725
            }
          }
        }
      }
    }
  }
  JOINT Spine
  {
    OFFSET 1e-005 4.46517 -0.10224
    CHANNELS 3 Zrotation Xrotation Yrotation
    JOINT Spine1
    {
      OFFSET 1e-005 4.46212 -0.1824
      CHANNELS 3 Zrotation Xrotation Yrotation
      JOINT Spine2
      {
        OFFSET 0 4.37937 -0.881
        CHANNELS 3 Zrotation Xrotation Yrotation
        JOINT Spine3
        {
          OFFSET 1e-005 4.68286 0.21414
          CHANNELS 3 Zrotation Xrotation Yrotation
          JOINT Neck
          {
            OFFSET 0 1.76964 0.82454
            CHANNELS 3 Zrotation Xrotation Yrotation
            JOINT Head
            {
              OFFSET 0 1.6961 0.93145
              CHANNELS 3 Zrotation Xrotation Yrotation
              JOINT Head_End
              {
                OFFSET 1e-005 7.8375 1.52603
              }
            }
          }
          JOINT LeftShoulder
          {
            OFFSET 1.19381 -0.75881 -0.02768
            CHANNELS 3 Zrotation Xrotation Yrotation
            JOINT LeftArm
            {
              OFFSET 5.18779 -2e-005 1e-005
              CHANNELS 3 Zrotation Xrotation Yrotation
              JOINT LeftForeArm
              {
                OFFSET 12.7364 -4e-005 2e-005
                CHANNELS 3 Zrotation Xrotation Yrotation
                JOINT LeftHand
                {
                  OFFSET 9.21452 -2e-005 1e-005
                  CHANNELS 3 Zrotation Xrotation Yrotation
                }
              }
            }
          }
          JOINT RightShoulder
          {
            OFFSET -1.19381 -0.75881 -0.02767
            CHANNELS 3 Zrotation Xrotation Yrotation
            JOINT RightArm
            {
              OFFSET -5.18779 1e-005 -1e-005
              CHANNELS 3 Zrotation Xrotation Yrotation
              JOINT RightForeArm
              {
                OFFSET -12.7364 3e-005 -2e-005
                CHANNELS 3 Zrotation Xrotation Yrotation
                JOINT RightHand
                {
                  OFFSET -9.21452 2e-005 -1e-005
                  CHANNELS 3 Zrotation Xrotation Yrotation
                }
              }
            }
          }
        }
      }
    }
  }
}
MOTION
Frames: 5
Frame Time: 	0.0166667
-5.62115e-009 41.1691 -5.92064e-008 0.594012 3.77517 -0.0391136 2.72498 -0.379029 2.70581  0.0539729 1.53376 -0.130053  -3.65861 -5.76062 0.397284  0.00590683 0.263975 0.0337028  -0 0 -0   -3.11867 -1.42609 0.289142  -0.192057 1.29918 0.239452  3.92417 -5.58366 2.19173  0.0317599 0.618523 0.022888  -0 0 -0   -0.292023 0.332552 0.367354  -0.0491714 0.667289 0.741323  -0.0491371 0.667796 0.740868  -0.049091 0.668303 0.740413  1.35767 -0.943792 0.433507  -0.741679 -2.77945 2.32371   -21.473 6.37341 3.8357  -52.5016 20.0471 -0.311513  2.68218 -1.04272 -7.25047  -0.649795 -7.89152 -1.70284  18.659 3.32869 -3.69553  51.1934 34.1072 2.62792  -3.89741 -1.48798 12.6675  -8.48389 -11.9702 0.00880164 
0.0136458 41.1698 -0.00459794 0.578693 3.74813 -0.0775196 2.7113 -0.357015 2.68062  0.0543041 1.54186 -0.124124  -3.58808 -5.74341 0.481795  0.00595366 0.208683 0.0333627  -0 0 -0   -3.12172 -1.40354 0.324461  -0.191769 1.27666 0.239791  3.92329 -5.52465 2.17476  0.0318023 0.580327 0.0229976  -0 0 -0   -0.301053 0.323159 0.357429  -0.0647084 0.648512 0.721437  -0.0646755 0.649009 0.720992  -0.0646313 0.649505 0.720549  1.36833 -0.965465 0.498046  -0.722561 -2.72194 2.3498   -21.4939 6.45113 3.83226  -52.4978 20.0161 -0.32131  2.67249 -1.03823 -7.22368  -0.581262 -7.82961 -1.59592  18.6799 3.38863 -3.76039  51.2539 34.0938 2.57224  -3.89454 -1.48651 12.6578  -8.54827 -12.128 -0.124553 
0.0217611 41.1712 -0.00198635 0.567531 3.71067 -0.112316 2.70878 -0.307109 2.67441  0.0535473 1.55457 -0.115399  -3.50532 -5.75851 0.530829  0.00596274 0.217419 0.0331301  -0 0 -0   -3.12163 -1.34397 0.348403  -0.190846 1.24112 0.239627  3.9411 -5.4902 2.18787  0.0318067 0.542232 0.0230924  -0 0 -0   -0.313827 0.310855 0.3494  -0.0866678 0.623927 0.705133  -0.0866365 0.624417 0.704703  -0.0865945 0.624906 0.704274  1.38235 -0.966722 0.511236  -0.70003 -2.57228 2.33972   -21.4962 6.50143 3.8424  -52.5094 19.9109 -0.332879  2.64138 -1.02386 -7.13767  -0.413283 -7.64371 -1.6318  18.6574 3.2816 -3.78468  51.5075 34.5938 2.14688  -3.97076 -1.52591 12.9166  -9.07023 -12.6962 -0.32753 
0.0343208 41.1709 -0.00382943 0.557196 3.68613 -0.156306 2.70209 -0.290351 2.64755  0.0506472 1.58325 -0.114327  -3.53149 -5.81224 0.608938  0.00597486 0.220694 0.0329968  -0 0 -0   -3.13071 -1.32908 0.368822  -0.189579 1.23606 0.23897  3.94107 -5.47233 2.2155  0.0317278 0.590699 0.0231724  -0 0 -0   -0.328261 0.302655 0.33993  -0.103389 0.607538 0.686252  -0.103358 0.608026 0.685824  -0.103317 0.608514 0.685397  1.38602 -0.96612 0.471115  -0.669493 -2.50442 2.29368   -21.4983 6.52428 3.8378  -52.5271 19.9106 -0.31015  2.64011 -1.02327 -7.13416  -0.38724 -7.72013 -1.62849  18.6714 3.31236 -3.84839  51.5206 34.5505 2.12816  -3.96336 -1.52206 12.8914  -8.88142 -12.8797 -0.349845 
0.0428475 41.1713 -0.0015614 0.560971 3.60686 -0.231878 2.6877 -0.196676 2.70582  0.046687 1.6119 -0.110104  -3.50844 -5.81918 0.602037  0.00599315 0.213053 0.0329546  -0 0 -0   -3.14343 -1.23893 0.406759  -0.187868 1.21169 0.237822  3.94198 -5.45778 2.23775  0.0316242 0.563873 0.0232361  -0 0 -0   -0.344918 0.300173 0.335166  -0.126206 0.624058 0.676103  -0.126174 0.62455 0.675655  -0.126131 0.625041 0.675208  1.4078 -1.03974 0.515859  -0.63285 -2.45463 2.28466   -21.4929 6.41417 3.83002  -52.6057 19.8336 -0.206802  2.66347 -1.03406 -7.19874  -0.39567 -7.69622 -1.61349  18.7188 3.403 -3.98601  51.5534 33.4755 2.41104  -3.85361 -1.46553 12.519  -8.50552 -12.0759 -0.0151505 
